M48
; DRILL file {KiCad 7.0.7+dfsg-1} date Πεμ 02 Μαΐ 2024 01:52:29 μμ EEST
; FORMAT={-:-/ absolute / inch / decimal}
; #@! TF.CreationDate,2024-05-02T13:52:29+03:00
; #@! TF.GenerationSoftware,Kicad,Pcbnew,7.0.7+dfsg-1
; #@! TF.FileFunction,Plated,1,2,PTH
FMAT,2
INCH
; #@! TA.AperFunction,Plated,PTH,ComponentDrill
T1C0.0079
; #@! TA.AperFunction,Plated,PTH,ComponentDrill
T2C0.0118
; #@! TA.AperFunction,Plated,PTH,ViaDrill
T3C0.0150
; #@! TA.AperFunction,Plated,PTH,ComponentDrill
T4C0.0315
; #@! TA.AperFunction,Plated,PTH,ComponentDrill
T5C0.0394
; #@! TA.AperFunction,Plated,PTH,ComponentDrill
T6C0.0394
; #@! TA.AperFunction,Plated,PTH,ComponentDrill
T7C0.0402
; #@! TA.AperFunction,Plated,PTH,ComponentDrill
T8C0.1250
%
G90
G05
T1
X4.8031Y-3.7205
X4.8031Y-3.8091
X4.8031Y-3.8976
X4.9114Y-3.7205
X4.9114Y-3.8091
X4.9114Y-3.8976
X5.0098Y-3.7205
X5.0098Y-3.8091
X5.0098Y-3.8976
X5.6772Y-4.6063
X5.6772Y-4.6496
X5.6772Y-4.6929
X5.7205Y-4.6063
X5.7205Y-4.6496
X5.7205Y-4.6929
X5.7638Y-4.6063
X5.7638Y-4.6496
X5.7638Y-4.6929
T2
X3.6417Y-2.5591
X3.6417Y-3.0709
X3.6417Y-3.2677
X3.6417Y-3.4252
X3.6417Y-3.6417
X3.6417Y-3.8583
X3.6417Y-5.1181
X3.6417Y-5.315
X3.6417Y-5.5118
X3.6417Y-5.7087
X3.6417Y-5.9055
X3.6417Y-6.3484
X3.8996Y-4.1594
X3.8996Y-4.2067
X3.937Y-4.5276
X3.9724Y-4.1969
X3.9882Y-4.2972
X3.9961Y-3.3071
X4.0354Y-6.3484
X4.0374Y-2.7067
X4.0571Y-2.7756
X4.0571Y-5.0354
X4.0571Y-5.0748
X4.0571Y-5.1142
X4.1142Y-2.8622
X4.124Y-4.6004
X4.2224Y-3.2776
X4.2303Y-3.3878
X4.2618Y-2.5591
X4.2776Y-3.0925
X4.3209Y-3.687
X4.3209Y-3.8327
X4.3406Y-3.5236
X4.3878Y-4.7717
X4.3937Y-4.2343
X4.4291Y-6.3484
X4.4449Y-3.0945
X4.4449Y-4.4173
X4.4587Y-3.5236
X4.4606Y-3.3071
X4.4606Y-3.3878
X4.5256Y-5.1988
X4.5276Y-2.7736
X4.5276Y-4.2126
X4.5728Y-4.3209
X4.5748Y-2.5591
X4.5748Y-3.6634
X4.6142Y-4.7717
X4.6161Y-3.2185
X4.6181Y-5.1988
X4.6673Y-3.8996
X4.6752Y-4.124
X4.6791Y-4.5866
X4.7106Y-5.1988
X4.7165Y-2.8602
X4.7185Y-2.687
X4.7776Y-3.0709
X4.7815Y-3.2165
X4.8031Y-5.1988
X4.8228Y-6.3484
X4.8327Y-4.1437
X4.8681Y-4.5827
X4.8917Y-4.1437
X4.8917Y-4.2461
X4.8957Y-2.9902
X4.8957Y-5.1988
X4.9882Y-5.1988
X4.9902Y-4.311
X5.0197Y-2.5591
X5.0276Y-4.311
X5.0394Y-3.4803
X5.0807Y-5.1988
X5.0886Y-4.6673
X5.0984Y-2.6969
X5.1181Y-4.0236
X5.128Y-3.2283
X5.1732Y-5.1988
X5.1969Y-4.252
X5.2165Y-6.3484
X5.2657Y-5.1988
X5.2756Y-4.4213
X5.315Y-3.4803
X5.3268Y-3.6575
X5.3445Y-4.0748
X5.4055Y-5.311
X5.4232Y-2.7264
X5.439Y-4.3937
X5.4409Y-3.7913
X5.4803Y-4.685
X5.4921Y-2.9665
X5.4921Y-3.4449
X5.5709Y-3.9134
X5.5827Y-3.2756
X5.6004Y-2.6772
X5.6004Y-2.7756
X5.6102Y-6.3484
X5.6339Y-4.3878
X5.6614Y-3.7028
X5.6811Y-4.1476
X5.6969Y-4.311
X5.7677Y-5.311
X5.7854Y-3.1752
X5.7913Y-4.9114
X5.8071Y-2.5591
X5.8071Y-2.9626
X5.8268Y-3.2677
X5.8563Y-3.435
X5.876Y-4.3996
X5.8858Y-4.6024
X5.8937Y-4.8071
X5.9154Y-2.9626
X5.9449Y-3.2382
X5.9567Y-3.8602
X6.0039Y-6.3484
X6.0138Y-2.9626
X6.0177Y-4.7894
X6.0276Y-4.6024
X6.0433Y-3.4646
X6.0689Y-5.2323
X6.1201Y-5.2323
X6.122Y-4.3917
X6.1339Y-2.6791
X6.1358Y-4.126
X6.1713Y-5.2323
X6.2008Y-3.1299
X6.2224Y-5.2323
X6.2697Y-3.4646
X6.2697Y-3.9528
X6.2736Y-5.2323
X6.3248Y-5.2323
X6.3386Y-3.0906
X6.3504Y-4.6024
X6.3976Y-6.3484
X6.4134Y-4.1299
X6.4941Y-2.6772
X6.5945Y-2.5591
X6.6693Y-5.0984
X6.7028Y-4.2618
X6.7205Y-4.8425
X6.7559Y-3.7067
X6.7717Y-6.3484
X6.7972Y-3.4429
X6.7972Y-4.124
X6.8268Y-5.7598
X6.8406Y-5.0984
X6.8976Y-3.1339
X6.9488Y-4.4488
X6.9764Y-3.9429
X7.0079Y-5.0965
X7.0197Y-4.5512
X7.0197Y-4.6535
X7.0197Y-4.7559
X7.0236Y-3.7638
X7.0315Y-4.3268
X7.0866Y-5.748
X7.1654Y-6.3484
X7.1791Y-6.1339
X7.1949Y-5.1575
X7.1949Y-5.3839
X7.3819Y-2.5591
X7.3819Y-5.4882
X7.4311Y-6.3484
T3
X4.2067Y-3.2051
X4.3681Y-3.315
X4.3907Y-3.2057
X4.4114Y-6.0209
X4.4134Y-5.3622
X4.4626Y-3.4606
X4.6161Y-3.8681
X4.6161Y-4.0157
X4.622Y-3.3858
X4.626Y-3.4843
X4.6909Y-4.5236
X4.7205Y-5.3881
X4.7224Y-6.0098
X4.815Y-4.3563
X4.8622Y-3.189
X4.8661Y-3.311
X4.9429Y-4.4902
X5.0315Y-5.4213
X5.0315Y-5.9646
X5.0787Y-4.5453
X5.1516Y-4.4646
X5.1535Y-3.563
X5.1949Y-4.5059
X5.2323Y-3.6535
X5.2756Y-5.5157
X5.2776Y-5.8504
X5.2953Y-2.685
X5.328Y-3.2372
X5.3898Y-5.4331
X5.3898Y-5.4895
X5.3898Y-5.5459
X5.3898Y-5.6024
X5.4035Y-5.8543
X5.4055Y-5.9764
X5.4055Y-6.0846
X5.4055Y-6.2008
X5.4173Y-2.6772
X5.5512Y-3.2283
X5.6043Y-3.5236
X5.6339Y-4.5394
X5.6958Y-4.7698
X5.7441Y-3.5669
X5.7637Y-4.7678
X5.7795Y-3.3622
X5.8031Y-4.563
X5.8106Y-5.0391
X5.8976Y-5.0787
X5.8992Y-3.9964
X5.9055Y-4.6988
X5.9357Y-4.0263
X5.9724Y-4.0515
X6.0059Y-4.0846
X6.063Y-6.2008
X6.0748Y-4.1555
X6.1201Y-6.0748
X6.1335Y-4.1775
X6.1693Y-5.8465
X6.1693Y-5.9646
X6.1693Y-5.7283
X6.1732Y-5.374
X6.1732Y-5.4921
X6.1732Y-5.6102
X6.2078Y-6.1916
X6.2992Y-3.5236
X6.3583Y-4.7244
X6.3937Y-4.6181
X6.3976Y-4.7244
X6.437Y-4.7244
X6.4724Y-6.1929
X6.4764Y-4.7244
X6.5157Y-4.7244
X6.5551Y-4.7244
X6.5945Y-3.5236
X6.5978Y-3.3869
X6.6158Y-3.3557
X6.6541Y-3.3464
X6.7008Y-6.2362
X6.7126Y-3.4843
X6.8425Y-2.7362
X6.8701Y-4.1378
X6.9126Y-2.8295
T4
X6.8472Y-5.5906
X6.8472Y-5.8906
X6.9472Y-5.5906
X6.9472Y-5.8906
X7.0472Y-5.5906
X7.0472Y-5.8906
X7.1472Y-5.5906
X7.1472Y-5.8906
T5
X3.7961Y-2.6772
X3.9071Y-2.6772
X4.4837Y-4.9498
X4.5837Y-4.9498
X4.6837Y-4.9553
X4.7837Y-4.9443
X4.8437Y-3.0498
X4.8837Y-4.9553
X4.9437Y-3.0553
X4.9837Y-4.9443
X5.0437Y-3.0443
X5.0837Y-4.9498
X5.1437Y-3.0553
X5.1837Y-4.9498
X5.2437Y-3.0443
X5.3437Y-3.0498
X5.3437Y-4.9498
X5.4437Y-4.9498
X5.5437Y-3.0498
X5.5437Y-4.9553
X5.6437Y-3.0498
X5.6437Y-4.9443
X5.7437Y-3.0553
X5.7437Y-4.9553
X5.8437Y-3.0443
X5.8437Y-4.9443
X5.9437Y-3.0553
X5.9437Y-4.9498
X6.0437Y-3.0443
X6.0437Y-4.9498
X6.1437Y-3.0498
X6.2437Y-3.0498
X6.2437Y-4.9498
X6.3437Y-4.9498
X6.4437Y-3.0498
X6.4437Y-4.9553
X6.5437Y-3.0498
X6.5437Y-4.9443
X6.6437Y-3.0553
X6.6437Y-4.9553
X6.6533Y-2.7791
X6.6589Y-2.8736
X6.7437Y-3.0443
X6.7437Y-4.9443
X6.7589Y-2.8846
X6.7644Y-2.7791
X6.8437Y-3.0553
X6.8437Y-4.9498
X6.8488Y-6.0417
X6.8488Y-6.1417
X6.8589Y-2.8736
X6.9437Y-3.0443
X6.9437Y-4.9498
X6.9488Y-6.0527
X6.9488Y-6.1527
X6.9547Y-3.2455
X6.9547Y-3.3455
X6.9547Y-3.4455
X6.9547Y-3.5455
X6.9589Y-2.8846
X7.0437Y-3.0498
X7.0488Y-6.0417
X7.0488Y-6.1417
X7.0547Y-3.2455
X7.0547Y-3.3455
X7.0547Y-3.4455
X7.0547Y-3.5455
X7.0589Y-2.7736
X7.0589Y-2.8736
X7.1437Y-3.0498
X7.1589Y-2.7846
X7.1589Y-2.8846
X7.2382Y-3.2498
X7.2382Y-4.0498
X7.2382Y-4.2498
X7.2382Y-4.8498
X7.2437Y-3.4498
X7.2437Y-3.5498
X7.2437Y-3.6498
X7.2437Y-3.7498
X7.2437Y-3.8498
X7.2437Y-4.3498
X7.2437Y-4.4498
X7.2437Y-4.5498
X7.2437Y-4.6498
X7.2437Y-4.7498
X7.2492Y-3.3498
X7.2492Y-3.9498
X7.2492Y-4.1498
X7.2492Y-4.9498
X7.2589Y-2.7736
X7.2589Y-2.8736
X7.2788Y-6.0468
X7.2788Y-6.1468
X7.3382Y-3.2498
X7.3382Y-4.0498
X7.3382Y-4.2498
X7.3382Y-4.8498
X7.3437Y-3.4498
X7.3437Y-3.5498
X7.3437Y-3.6498
X7.3437Y-3.7498
X7.3437Y-3.8498
X7.3437Y-4.3498
X7.3437Y-4.4498
X7.3437Y-4.5498
X7.3437Y-4.6498
X7.3437Y-4.7498
X7.3492Y-3.3498
X7.3492Y-3.9498
X7.3492Y-4.1498
X7.3492Y-4.9498
X7.3589Y-2.7846
X7.3589Y-2.8846
X7.3898Y-6.0468
X7.3898Y-6.1468
T6
X4.8386Y-2.7441
T7
X3.812Y-2.874
X3.812Y-2.9921
X3.812Y-3.1102
X3.812Y-3.2283
X3.812Y-3.3465
X3.812Y-3.4646
X3.812Y-3.5827
X3.812Y-3.7008
X3.812Y-3.8189
X3.812Y-3.937
X3.812Y-4.0551
X3.812Y-4.8425
X3.812Y-4.9606
X3.812Y-5.0787
X3.812Y-5.1969
X3.812Y-5.315
X3.812Y-5.4331
X3.812Y-5.5512
X3.812Y-5.6693
X3.812Y-5.7874
X3.812Y-5.9055
X3.812Y-6.0236
X3.812Y-6.1417
X3.9301Y-2.874
X3.9301Y-2.9921
X3.9301Y-3.1102
X3.9301Y-3.2283
X3.9301Y-3.3465
X3.9301Y-3.4646
X3.9301Y-3.5827
X3.9301Y-3.7008
X3.9301Y-3.8189
X3.9301Y-3.937
X3.9301Y-4.0551
X3.9301Y-4.8425
X3.9301Y-4.9606
X3.9301Y-5.0787
X3.9301Y-5.1969
X3.9301Y-5.315
X3.9301Y-5.4331
X3.9301Y-5.5512
X3.9301Y-5.6693
X3.9301Y-5.7874
X3.9301Y-5.9055
X3.9301Y-6.0236
X3.9301Y-6.1417
T8
X4.0937Y-3.0498
X4.1437Y-4.9498
X6.1437Y-3.2498
X7.0937Y-4.9498
X7.3437Y-3.0498
T0
M30
