G04 #@! TF.GenerationSoftware,KiCad,Pcbnew,7.0.7+dfsg-1*
G04 #@! TF.CreationDate,2024-05-02T13:52:24+03:00*
G04 #@! TF.ProjectId,UA4C-vC5,55413443-2d76-4433-952e-6b696361645f,C5*
G04 #@! TF.SameCoordinates,Original*
G04 #@! TF.FileFunction,Soldermask,Bot*
G04 #@! TF.FilePolarity,Negative*
%FSLAX46Y46*%
G04 Gerber Fmt 4.6, Leading zero omitted, Abs format (unit mm)*
G04 Created by KiCad (PCBNEW 7.0.7+dfsg-1) date 2024-05-02 13:52:24*
%MOMM*%
%LPD*%
G01*
G04 APERTURE LIST*
G04 Aperture macros list*
%AMRoundRect*
0 Rectangle with rounded corners*
0 $1 Rounding radius*
0 $2 $3 $4 $5 $6 $7 $8 $9 X,Y pos of 4 corners*
0 Add a 4 corners polygon primitive as box body*
4,1,4,$2,$3,$4,$5,$6,$7,$8,$9,$2,$3,0*
0 Add four circle primitives for the rounded corners*
1,1,$1+$1,$2,$3*
1,1,$1+$1,$4,$5*
1,1,$1+$1,$6,$7*
1,1,$1+$1,$8,$9*
0 Add four rect primitives between the rounded corners*
20,1,$1+$1,$2,$3,$4,$5,0*
20,1,$1+$1,$4,$5,$6,$7,0*
20,1,$1+$1,$6,$7,$8,$9,0*
20,1,$1+$1,$8,$9,$2,$3,0*%
G04 Aperture macros list end*
%ADD10R,1.700000X1.700000*%
%ADD11O,1.700000X1.700000*%
%ADD12C,3.000000*%
%ADD13RoundRect,0.250001X0.499999X-0.499999X0.499999X0.499999X-0.499999X0.499999X-0.499999X-0.499999X0*%
%ADD14C,1.500000*%
%ADD15R,1.600000X1.600000*%
%ADD16O,1.600000X1.600000*%
%ADD17C,2.499360*%
%ADD18C,3.937000*%
%ADD19O,1.500000X2.250000*%
%ADD20C,1.524000*%
%ADD21R,1.000000X1.500000*%
%ADD22R,1.500000X1.000000*%
G04 APERTURE END LIST*
D10*
X179295000Y-70450000D03*
D11*
X181835000Y-70730000D03*
X184375000Y-70450000D03*
X186915000Y-70730000D03*
D10*
X169135000Y-72990000D03*
D11*
X171675000Y-73270000D03*
X174215000Y-72990000D03*
X176755000Y-73270000D03*
D10*
X176650000Y-82435000D03*
D11*
X176650000Y-84975000D03*
X176650000Y-87515000D03*
X176650000Y-90055000D03*
D10*
X179190000Y-82435000D03*
D11*
X179190000Y-84975000D03*
X179190000Y-87515000D03*
X179190000Y-90055000D03*
D10*
X179295000Y-72990000D03*
D11*
X181835000Y-73270000D03*
X184375000Y-72990000D03*
X186915000Y-73270000D03*
D12*
X92505000Y-75160000D03*
X92505000Y-100860000D03*
D13*
X96825000Y-103000000D03*
D14*
X96825000Y-100000000D03*
X96825000Y-97000000D03*
X96825000Y-94000000D03*
X96825000Y-91000000D03*
X96825000Y-88000000D03*
X96825000Y-85000000D03*
X96825000Y-82000000D03*
X96825000Y-79000000D03*
X96825000Y-76000000D03*
X96825000Y-73000000D03*
X99825000Y-103000000D03*
X99825000Y-100000000D03*
X99825000Y-97000000D03*
X99825000Y-94000000D03*
X99825000Y-91000000D03*
X99825000Y-88000000D03*
X99825000Y-85000000D03*
X99825000Y-82000000D03*
X99825000Y-79000000D03*
X99825000Y-76000000D03*
X99825000Y-73000000D03*
D10*
X168995000Y-70590000D03*
D11*
X171815000Y-70590000D03*
D15*
X173920000Y-149620000D03*
D16*
X176460000Y-149620000D03*
X179000000Y-149620000D03*
X181540000Y-149620000D03*
X181540000Y-142000000D03*
X179000000Y-142000000D03*
X176460000Y-142000000D03*
X173920000Y-142000000D03*
D10*
X179040000Y-155999534D03*
D11*
X176500000Y-156279534D03*
X173960000Y-155999534D03*
D10*
X187701482Y-156129988D03*
D11*
X184881482Y-156129988D03*
D10*
X99240000Y-68000000D03*
D11*
X96420000Y-68000000D03*
D17*
X122900000Y-69700000D03*
D12*
X92505000Y-153860000D03*
X92505000Y-125160000D03*
D13*
X96825000Y-156000000D03*
D14*
X96825000Y-153000000D03*
X96825000Y-150000000D03*
X96825000Y-147000000D03*
X96825000Y-144000000D03*
X96825000Y-141000000D03*
X96825000Y-138000000D03*
X96825000Y-135000000D03*
X96825000Y-132000000D03*
X96825000Y-129000000D03*
X96825000Y-126000000D03*
X96825000Y-123000000D03*
X99825000Y-156000000D03*
X99825000Y-153000000D03*
X99825000Y-150000000D03*
X99825000Y-147000000D03*
X99825000Y-144000000D03*
X99825000Y-141000000D03*
X99825000Y-138000000D03*
X99825000Y-135000000D03*
X99825000Y-132000000D03*
X99825000Y-129000000D03*
X99825000Y-126000000D03*
X99825000Y-123000000D03*
D10*
X179040000Y-153459534D03*
D11*
X176500000Y-153739534D03*
X173960000Y-153459534D03*
D10*
X187701482Y-153589988D03*
D11*
X184881482Y-153589988D03*
D18*
X103980000Y-77465000D03*
X105250000Y-125725000D03*
X156050000Y-82545000D03*
X186530000Y-77465000D03*
X180180000Y-125725000D03*
D19*
X153510000Y-125725000D03*
X150970000Y-125725000D03*
X148430000Y-125585000D03*
X145890000Y-125865000D03*
X125570000Y-77605000D03*
X143350000Y-125585000D03*
X140810000Y-125865000D03*
X128110000Y-77325000D03*
D20*
X184130000Y-125725000D03*
X186670000Y-125725000D03*
D19*
X138270000Y-125725000D03*
X135730000Y-125725000D03*
X131666000Y-125725000D03*
X129126000Y-125725000D03*
X126586000Y-125585000D03*
X124046000Y-125865000D03*
X121506000Y-125585000D03*
X118966000Y-125865000D03*
X158590000Y-125725000D03*
X161130000Y-125725000D03*
X163670000Y-125865000D03*
X166210000Y-125585000D03*
X168750000Y-125865000D03*
X171290000Y-125585000D03*
X173830000Y-125725000D03*
X176370000Y-125725000D03*
D20*
X183850000Y-123185000D03*
X186390000Y-123185000D03*
X183990000Y-120645000D03*
X186530000Y-120645000D03*
X183990000Y-118105000D03*
X186530000Y-118105000D03*
X183990000Y-115565000D03*
X186530000Y-115565000D03*
X183990000Y-113025000D03*
X186530000Y-113025000D03*
X183990000Y-110485000D03*
X186530000Y-110485000D03*
X183850000Y-107945000D03*
X186390000Y-107945000D03*
X184130000Y-105405000D03*
X186670000Y-105405000D03*
X183850000Y-102865000D03*
X186390000Y-102865000D03*
X184130000Y-100325000D03*
X186670000Y-100325000D03*
X183990000Y-97785000D03*
X186530000Y-97785000D03*
X183990000Y-95245000D03*
X186530000Y-95245000D03*
X183990000Y-92705000D03*
X186530000Y-92705000D03*
X183990000Y-90165000D03*
X186530000Y-90165000D03*
X183990000Y-87625000D03*
X186530000Y-87625000D03*
X184130000Y-85085000D03*
X186670000Y-85085000D03*
D19*
X140810000Y-77465000D03*
X143350000Y-77465000D03*
X145890000Y-77605000D03*
X148430000Y-77325000D03*
X150970000Y-77605000D03*
X153510000Y-77325000D03*
X156050000Y-77465000D03*
X158590000Y-77465000D03*
X163670000Y-77465000D03*
X166210000Y-77465000D03*
X168750000Y-77605000D03*
X171290000Y-77325000D03*
X173830000Y-77605000D03*
X176370000Y-77325000D03*
X178910000Y-77465000D03*
X181450000Y-77465000D03*
X113886000Y-125725000D03*
X130650000Y-77605000D03*
X133190000Y-77325000D03*
X116426000Y-125725000D03*
D20*
X183850000Y-82545000D03*
X186390000Y-82545000D03*
D19*
X123030000Y-77465000D03*
X135730000Y-77465000D03*
D21*
X174850000Y-68000000D03*
X176150000Y-68000000D03*
X174850000Y-70400000D03*
X176150000Y-70400000D03*
X162200000Y-89500000D03*
X163500000Y-89500000D03*
X164800000Y-89500000D03*
X169200000Y-89500000D03*
X170500000Y-89500000D03*
X171800000Y-89500000D03*
X110300000Y-82600000D03*
X109000000Y-82600000D03*
X107700000Y-82600000D03*
X147350000Y-129300000D03*
X148650000Y-129300000D03*
X160000000Y-158400000D03*
X161300000Y-158400000D03*
X162600000Y-158400000D03*
X155100000Y-89500000D03*
X156400000Y-89500000D03*
X157700000Y-89500000D03*
D22*
X132100000Y-69550000D03*
X132100000Y-68250000D03*
M02*
