G04 #@! TF.GenerationSoftware,KiCad,Pcbnew,7.0.7+dfsg-1*
G04 #@! TF.CreationDate,2024-05-02T13:52:24+03:00*
G04 #@! TF.ProjectId,UA4C-vC5,55413443-2d76-4433-952e-6b696361645f,C5*
G04 #@! TF.SameCoordinates,Original*
G04 #@! TF.FileFunction,Paste,Top*
G04 #@! TF.FilePolarity,Positive*
%FSLAX46Y46*%
G04 Gerber Fmt 4.6, Leading zero omitted, Abs format (unit mm)*
G04 Created by KiCad (PCBNEW 7.0.7+dfsg-1) date 2024-05-02 13:52:24*
%MOMM*%
%LPD*%
G01*
G04 APERTURE LIST*
G04 Aperture macros list*
%AMRoundRect*
0 Rectangle with rounded corners*
0 $1 Rounding radius*
0 $2 $3 $4 $5 $6 $7 $8 $9 X,Y pos of 4 corners*
0 Add a 4 corners polygon primitive as box body*
4,1,4,$2,$3,$4,$5,$6,$7,$8,$9,$2,$3,0*
0 Add four circle primitives for the rounded corners*
1,1,$1+$1,$2,$3*
1,1,$1+$1,$4,$5*
1,1,$1+$1,$6,$7*
1,1,$1+$1,$8,$9*
0 Add four rect primitives between the rounded corners*
20,1,$1+$1,$2,$3,$4,$5,0*
20,1,$1+$1,$4,$5,$6,$7,0*
20,1,$1+$1,$6,$7,$8,$9,0*
20,1,$1+$1,$8,$9,$2,$3,0*%
G04 Aperture macros list end*
%ADD10R,0.900000X0.800000*%
%ADD11RoundRect,0.150000X-0.150000X0.825000X-0.150000X-0.825000X0.150000X-0.825000X0.150000X0.825000X0*%
%ADD12RoundRect,0.218750X0.256250X-0.218750X0.256250X0.218750X-0.256250X0.218750X-0.256250X-0.218750X0*%
%ADD13RoundRect,0.218750X-0.218750X-0.256250X0.218750X-0.256250X0.218750X0.256250X-0.218750X0.256250X0*%
%ADD14RoundRect,0.218750X0.218750X0.256250X-0.218750X0.256250X-0.218750X-0.256250X0.218750X-0.256250X0*%
%ADD15R,1.346200X0.685800*%
%ADD16R,0.800000X0.900000*%
%ADD17RoundRect,0.250000X1.425000X-0.362500X1.425000X0.362500X-1.425000X0.362500X-1.425000X-0.362500X0*%
%ADD18RoundRect,0.250000X-0.362500X-1.425000X0.362500X-1.425000X0.362500X1.425000X-0.362500X1.425000X0*%
%ADD19RoundRect,0.150000X0.825000X0.150000X-0.825000X0.150000X-0.825000X-0.150000X0.825000X-0.150000X0*%
%ADD20RoundRect,0.243750X-0.243750X-0.456250X0.243750X-0.456250X0.243750X0.456250X-0.243750X0.456250X0*%
%ADD21RoundRect,0.243750X0.243750X0.456250X-0.243750X0.456250X-0.243750X-0.456250X0.243750X-0.456250X0*%
%ADD22RoundRect,0.243750X-0.456250X0.243750X-0.456250X-0.243750X0.456250X-0.243750X0.456250X0.243750X0*%
%ADD23RoundRect,0.250000X0.450000X-0.262500X0.450000X0.262500X-0.450000X0.262500X-0.450000X-0.262500X0*%
%ADD24RoundRect,0.250000X-0.262500X-0.450000X0.262500X-0.450000X0.262500X0.450000X-0.262500X0.450000X0*%
%ADD25RoundRect,0.250000X-0.450000X0.262500X-0.450000X-0.262500X0.450000X-0.262500X0.450000X0.262500X0*%
%ADD26RoundRect,0.250000X0.262500X0.450000X-0.262500X0.450000X-0.262500X-0.450000X0.262500X-0.450000X0*%
%ADD27RoundRect,0.218750X-0.256250X0.218750X-0.256250X-0.218750X0.256250X-0.218750X0.256250X0.218750X0*%
%ADD28R,0.600000X0.700000*%
%ADD29R,2.750000X3.050000*%
%ADD30R,1.200000X2.200000*%
%ADD31RoundRect,0.250000X-0.375000X-0.625000X0.375000X-0.625000X0.375000X0.625000X-0.375000X0.625000X0*%
%ADD32RoundRect,0.250000X-0.250000X-0.475000X0.250000X-0.475000X0.250000X0.475000X-0.250000X0.475000X0*%
%ADD33RoundRect,0.250000X0.250000X0.475000X-0.250000X0.475000X-0.250000X-0.475000X0.250000X-0.475000X0*%
%ADD34RoundRect,0.250000X0.550000X-1.500000X0.550000X1.500000X-0.550000X1.500000X-0.550000X-1.500000X0*%
%ADD35RoundRect,0.250000X-0.475000X0.250000X-0.475000X-0.250000X0.475000X-0.250000X0.475000X0.250000X0*%
%ADD36RoundRect,0.250000X0.475000X-0.250000X0.475000X0.250000X-0.475000X0.250000X-0.475000X-0.250000X0*%
%ADD37RoundRect,0.250000X-0.159099X0.512652X-0.512652X0.159099X0.159099X-0.512652X0.512652X-0.159099X0*%
%ADD38R,1.200000X0.800000*%
%ADD39R,1.200000X1.200000*%
%ADD40RoundRect,0.250000X2.425000X-0.887500X2.425000X0.887500X-2.425000X0.887500X-2.425000X-0.887500X0*%
%ADD41R,2.500000X1.800000*%
%ADD42R,2.500000X2.300000*%
%ADD43R,3.050000X2.750000*%
%ADD44R,2.200000X1.200000*%
%ADD45RoundRect,0.250000X-0.450000X-0.425000X0.450000X-0.425000X0.450000X0.425000X-0.450000X0.425000X0*%
%ADD46RoundRect,0.250000X0.335000X0.335000X-0.335000X0.335000X-0.335000X-0.335000X0.335000X-0.335000X0*%
%ADD47RoundRect,0.062500X0.350000X0.062500X-0.350000X0.062500X-0.350000X-0.062500X0.350000X-0.062500X0*%
%ADD48RoundRect,0.062500X0.062500X0.350000X-0.062500X0.350000X-0.062500X-0.350000X0.062500X-0.350000X0*%
%ADD49RoundRect,0.250000X-1.500000X-0.550000X1.500000X-0.550000X1.500000X0.550000X-1.500000X0.550000X0*%
%ADD50RoundRect,0.150000X0.512500X0.150000X-0.512500X0.150000X-0.512500X-0.150000X0.512500X-0.150000X0*%
G04 APERTURE END LIST*
D10*
X171500000Y-88550000D03*
X171500000Y-90450000D03*
X173500000Y-89500000D03*
X164500000Y-88550000D03*
X164500000Y-90450000D03*
X166500000Y-89500000D03*
X136500000Y-88550000D03*
X136500000Y-90450000D03*
X138500000Y-89500000D03*
X143500000Y-88550000D03*
X143500000Y-90450000D03*
X145500000Y-89500000D03*
X150000000Y-88550000D03*
X150000000Y-90450000D03*
X152000000Y-89500000D03*
D11*
X122955000Y-107500000D03*
X121685000Y-107500000D03*
X120415000Y-107500000D03*
X119145000Y-107500000D03*
X119145000Y-112450000D03*
X120415000Y-112450000D03*
X121685000Y-112450000D03*
X122955000Y-112450000D03*
X129360000Y-107500000D03*
X128090000Y-107500000D03*
X126820000Y-107500000D03*
X125550000Y-107500000D03*
X125550000Y-112450000D03*
X126820000Y-112450000D03*
X128090000Y-112450000D03*
X129360000Y-112450000D03*
D12*
X137300000Y-132262500D03*
X137300000Y-130687500D03*
X139800000Y-132262500D03*
X139800000Y-130687500D03*
X142300000Y-132262500D03*
X142300000Y-130687500D03*
X144800000Y-132262500D03*
X144800000Y-130687500D03*
D13*
X140812500Y-159000000D03*
X142387500Y-159000000D03*
D14*
X153887500Y-141000000D03*
X152312500Y-141000000D03*
D15*
X135914900Y-71905000D03*
X135914900Y-70635000D03*
X135914900Y-69365000D03*
X135914900Y-68095000D03*
X126085100Y-68095000D03*
X126085100Y-69365000D03*
X126085100Y-70635000D03*
X126085100Y-71905000D03*
D10*
X125000000Y-88550000D03*
X125000000Y-90450000D03*
X127000000Y-89500000D03*
X114500000Y-88550000D03*
X114500000Y-90450000D03*
X116500000Y-89500000D03*
D13*
X140812500Y-147000000D03*
X142387500Y-147000000D03*
X140812500Y-156000000D03*
X142387500Y-156000000D03*
D10*
X132000000Y-88550000D03*
X132000000Y-90450000D03*
X134000000Y-89500000D03*
D16*
X108250000Y-87750000D03*
X110150000Y-87750000D03*
X109200000Y-85750000D03*
D10*
X186000000Y-135110000D03*
X186000000Y-133210000D03*
X184000000Y-134160000D03*
X181500000Y-135120000D03*
X181500000Y-133220000D03*
X179500000Y-134170000D03*
D13*
X140812500Y-144000000D03*
X142387500Y-144000000D03*
D14*
X153887500Y-156000000D03*
X152312500Y-156000000D03*
D13*
X140812500Y-153000000D03*
X142387500Y-153000000D03*
X140812500Y-141000000D03*
X142387500Y-141000000D03*
D14*
X153887500Y-153000000D03*
X152312500Y-153000000D03*
D13*
X140812500Y-150000000D03*
X142387500Y-150000000D03*
X140812500Y-138000000D03*
X142387500Y-138000000D03*
D14*
X153887500Y-150000000D03*
X152312500Y-150000000D03*
X153887500Y-159000000D03*
X152312500Y-159000000D03*
D17*
X106850000Y-118162500D03*
X106850000Y-112237500D03*
D18*
X109937500Y-113300000D03*
X115862500Y-113300000D03*
X109937500Y-117400000D03*
X115862500Y-117400000D03*
D10*
X119000000Y-88550000D03*
X119000000Y-90450000D03*
X121000000Y-89500000D03*
D19*
X163775000Y-150405000D03*
X163775000Y-149135000D03*
X163775000Y-147865000D03*
X163775000Y-146595000D03*
X158825000Y-146595000D03*
X158825000Y-147865000D03*
X158825000Y-149135000D03*
X158825000Y-150405000D03*
X163775000Y-144405000D03*
X163775000Y-143135000D03*
X163775000Y-141865000D03*
X163775000Y-140595000D03*
X158825000Y-140595000D03*
X158825000Y-141865000D03*
X158825000Y-143135000D03*
X158825000Y-144405000D03*
D13*
X175312500Y-123000000D03*
X176887500Y-123000000D03*
X179712500Y-120800000D03*
X181287500Y-120800000D03*
X179712500Y-118200000D03*
X181287500Y-118200000D03*
X179712500Y-113000000D03*
X181287500Y-113000000D03*
D14*
X176887500Y-115600000D03*
X175312500Y-115600000D03*
X176887500Y-120800000D03*
X175312500Y-120800000D03*
D20*
X132062500Y-81000000D03*
X133937500Y-81000000D03*
D21*
X133937500Y-86000000D03*
X132062500Y-86000000D03*
D20*
X125062500Y-81000000D03*
X126937500Y-81000000D03*
D21*
X126937500Y-86000000D03*
X125062500Y-86000000D03*
D22*
X161250000Y-71200000D03*
X161250000Y-73075000D03*
D20*
X171562500Y-81000000D03*
X173437500Y-81000000D03*
D21*
X166437500Y-81000000D03*
X164562500Y-81000000D03*
X166437500Y-86000000D03*
X164562500Y-86000000D03*
X173437500Y-86000000D03*
X171562500Y-86000000D03*
D20*
X136562500Y-81000000D03*
X138437500Y-81000000D03*
D21*
X138437500Y-86000000D03*
X136562500Y-86000000D03*
D20*
X139062500Y-70500000D03*
X140937500Y-70500000D03*
X139062500Y-73000000D03*
X140937500Y-73000000D03*
X143562500Y-81000000D03*
X145437500Y-81000000D03*
D21*
X145437500Y-86000000D03*
X143562500Y-86000000D03*
X140937500Y-68000000D03*
X139062500Y-68000000D03*
D20*
X150062500Y-81000000D03*
X151937500Y-81000000D03*
D21*
X151937500Y-86000000D03*
X150062500Y-86000000D03*
X122337500Y-115400000D03*
X120462500Y-115400000D03*
X122337500Y-117450000D03*
X120462500Y-117450000D03*
D20*
X124962500Y-115400000D03*
X126837500Y-115400000D03*
D21*
X185937500Y-131000000D03*
X184062500Y-131000000D03*
D20*
X179562500Y-131000000D03*
X181437500Y-131000000D03*
D23*
X129500000Y-90412500D03*
X129500000Y-88587500D03*
X129500000Y-85912500D03*
X129500000Y-84087500D03*
D24*
X132087500Y-83500000D03*
X133912500Y-83500000D03*
X125087500Y-83500000D03*
X126912500Y-83500000D03*
D25*
X169000000Y-82087500D03*
X169000000Y-83912500D03*
X169000000Y-86587500D03*
X169000000Y-88412500D03*
D24*
X171587500Y-83500000D03*
X173412500Y-83500000D03*
D26*
X166412500Y-83500000D03*
X164587500Y-83500000D03*
D24*
X114587500Y-83500000D03*
X116412500Y-83500000D03*
X136587500Y-83500000D03*
X138412500Y-83500000D03*
D23*
X141000000Y-90412500D03*
X141000000Y-88587500D03*
D24*
X143587500Y-83500000D03*
X145412500Y-83500000D03*
D26*
X145412500Y-70500000D03*
X143587500Y-70500000D03*
X145412500Y-68000000D03*
X143587500Y-68000000D03*
D23*
X147700000Y-90412500D03*
X147700000Y-88587500D03*
D24*
X150087500Y-83500000D03*
X151912500Y-83500000D03*
X131037500Y-118000000D03*
X132862500Y-118000000D03*
D27*
X134000000Y-102925000D03*
X134000000Y-104500000D03*
D12*
X131750000Y-104537500D03*
X131750000Y-102962500D03*
D24*
X131037500Y-115500000D03*
X132862500Y-115500000D03*
D27*
X138000000Y-105462500D03*
X138000000Y-107037500D03*
D12*
X135750000Y-107037500D03*
X135750000Y-105462500D03*
D24*
X135037500Y-115500000D03*
X136862500Y-115500000D03*
X114587500Y-86000000D03*
X116412500Y-86000000D03*
X104087500Y-84500000D03*
X105912500Y-84500000D03*
D27*
X128100000Y-120712500D03*
X128100000Y-122287500D03*
X125700000Y-120712500D03*
X125700000Y-122287500D03*
X130500000Y-120712500D03*
X130500000Y-122287500D03*
X123300000Y-120712500D03*
X123300000Y-122287500D03*
D14*
X176887500Y-118200000D03*
X175312500Y-118200000D03*
D27*
X132900000Y-120712500D03*
X132900000Y-122287500D03*
X118500000Y-120712500D03*
X118500000Y-122287500D03*
X135300000Y-120712500D03*
X135300000Y-122287500D03*
X120900000Y-120712500D03*
X120900000Y-122287500D03*
D23*
X176500000Y-134912500D03*
X176500000Y-133087500D03*
D24*
X119087500Y-86000000D03*
X120912500Y-86000000D03*
D19*
X163775000Y-156405000D03*
X163775000Y-155135000D03*
X163775000Y-153865000D03*
X163775000Y-152595000D03*
X158825000Y-152595000D03*
X158825000Y-153865000D03*
X158825000Y-155135000D03*
X158825000Y-156405000D03*
D24*
X160587500Y-81000000D03*
X162412500Y-81000000D03*
D14*
X153887500Y-147000000D03*
X152312500Y-147000000D03*
D19*
X163775000Y-138405000D03*
X163775000Y-137135000D03*
X163775000Y-135865000D03*
X163775000Y-134595000D03*
X158825000Y-134595000D03*
X158825000Y-135865000D03*
X158825000Y-137135000D03*
X158825000Y-138405000D03*
D14*
X153887500Y-135000000D03*
X152312500Y-135000000D03*
X153887500Y-138000000D03*
X152312500Y-138000000D03*
X153887500Y-144000000D03*
X152312500Y-144000000D03*
D13*
X104212500Y-82000000D03*
X105787500Y-82000000D03*
D14*
X149687500Y-144000000D03*
X148112500Y-144000000D03*
X149687500Y-141000000D03*
X148112500Y-141000000D03*
X149687500Y-138000000D03*
X148112500Y-138000000D03*
X149687500Y-135000000D03*
X148112500Y-135000000D03*
D13*
X145012500Y-159000000D03*
X146587500Y-159000000D03*
X145012500Y-147000000D03*
X146587500Y-147000000D03*
X145012500Y-156000000D03*
X146587500Y-156000000D03*
X145012500Y-144000000D03*
X146587500Y-144000000D03*
X145012500Y-153000000D03*
X146587500Y-153000000D03*
X145012500Y-141000000D03*
X146587500Y-141000000D03*
X145012500Y-150000000D03*
X146587500Y-150000000D03*
X145012500Y-138000000D03*
X146587500Y-138000000D03*
D14*
X149687500Y-159000000D03*
X148112500Y-159000000D03*
X149687500Y-156000000D03*
X148112500Y-156000000D03*
D13*
X163612500Y-158500000D03*
X165187500Y-158500000D03*
D14*
X149687500Y-153000000D03*
X148112500Y-153000000D03*
X149687500Y-150000000D03*
X148112500Y-150000000D03*
X149687500Y-147000000D03*
X148112500Y-147000000D03*
D22*
X185000000Y-142107418D03*
X185000000Y-143982418D03*
X187500000Y-142107418D03*
X187500000Y-143982418D03*
D28*
X148700000Y-129300000D03*
X147300000Y-129300000D03*
D13*
X155712500Y-159000000D03*
X157287500Y-159000000D03*
D26*
X169112500Y-158700000D03*
X167287500Y-158700000D03*
D28*
X156600000Y-144000000D03*
X155200000Y-144000000D03*
X156600000Y-141000000D03*
X155200000Y-141000000D03*
X156600000Y-138000000D03*
X155200000Y-138000000D03*
X138100000Y-159000000D03*
X139500000Y-159000000D03*
X138100000Y-147000000D03*
X139500000Y-147000000D03*
X138100000Y-156000000D03*
X139500000Y-156000000D03*
X138100000Y-144000000D03*
X139500000Y-144000000D03*
X156600000Y-135000000D03*
X155200000Y-135000000D03*
X138100000Y-153000000D03*
X139500000Y-153000000D03*
X138100000Y-141000000D03*
X139500000Y-141000000D03*
X156600000Y-156000000D03*
X155200000Y-156000000D03*
X138100000Y-150000000D03*
X139500000Y-150000000D03*
X138100000Y-138000000D03*
X139500000Y-138000000D03*
X156600000Y-153000000D03*
X155200000Y-153000000D03*
X156600000Y-150000000D03*
X155200000Y-150000000D03*
X161600000Y-158500000D03*
X160200000Y-158500000D03*
X156600000Y-147000000D03*
X155200000Y-147000000D03*
D29*
X133245000Y-134525000D03*
X130195000Y-137875000D03*
X133245000Y-137875000D03*
X130195000Y-134525000D03*
D30*
X134000000Y-129900000D03*
X131720000Y-129900000D03*
X129440000Y-129900000D03*
D29*
X125395000Y-137875000D03*
X122345000Y-134525000D03*
X125395000Y-134525000D03*
X122345000Y-137875000D03*
D30*
X126150000Y-129900000D03*
X123870000Y-129900000D03*
X121590000Y-129900000D03*
D29*
X109695000Y-134525000D03*
X109695000Y-137875000D03*
X106645000Y-137875000D03*
X106645000Y-134525000D03*
D30*
X110450000Y-129900000D03*
X108170000Y-129900000D03*
X105890000Y-129900000D03*
D29*
X117545000Y-137875000D03*
X114495000Y-134525000D03*
X114495000Y-137875000D03*
X117545000Y-134525000D03*
D30*
X118300000Y-129900000D03*
X116020000Y-129900000D03*
X113740000Y-129900000D03*
D29*
X109695000Y-153875000D03*
X106645000Y-153875000D03*
X109695000Y-150525000D03*
X106645000Y-150525000D03*
D30*
X105890000Y-158500000D03*
X108170000Y-158500000D03*
X110450000Y-158500000D03*
D29*
X117545000Y-150525000D03*
X117545000Y-153875000D03*
X114495000Y-150525000D03*
X114495000Y-153875000D03*
D30*
X113740000Y-158500000D03*
X116020000Y-158500000D03*
X118300000Y-158500000D03*
D29*
X125395000Y-153875000D03*
X125395000Y-150525000D03*
X122345000Y-150525000D03*
X122345000Y-153875000D03*
D30*
X121590000Y-158500000D03*
X123870000Y-158500000D03*
X126150000Y-158500000D03*
D29*
X133245000Y-150525000D03*
X133245000Y-153875000D03*
X130195000Y-153875000D03*
X130195000Y-150525000D03*
D30*
X129440000Y-158500000D03*
X131720000Y-158500000D03*
X134000000Y-158500000D03*
D13*
X179712500Y-115600000D03*
X181287500Y-115600000D03*
D31*
X116950000Y-76850000D03*
X119750000Y-76850000D03*
D10*
X143500000Y-72650000D03*
X143500000Y-74550000D03*
X145500000Y-73600000D03*
D32*
X145750000Y-122700000D03*
X147650000Y-122700000D03*
D33*
X150950000Y-120500000D03*
X149050000Y-120500000D03*
D34*
X155500000Y-120300000D03*
X155500000Y-114700000D03*
D35*
X141100000Y-117050000D03*
X141100000Y-118950000D03*
D36*
X145100000Y-114350000D03*
X145100000Y-112450000D03*
D33*
X141350000Y-120900000D03*
X139450000Y-120900000D03*
D26*
X150912500Y-115500000D03*
X149087500Y-115500000D03*
D24*
X135037500Y-118000000D03*
X136862500Y-118000000D03*
D37*
X142571751Y-113328249D03*
X141228249Y-114671751D03*
D26*
X150912500Y-118250000D03*
X149087500Y-118250000D03*
D18*
X109937500Y-121500000D03*
X115862500Y-121500000D03*
D20*
X124962500Y-117450000D03*
X126837500Y-117450000D03*
D23*
X174000000Y-134912500D03*
X174000000Y-133087500D03*
D33*
X162450000Y-83500000D03*
X160550000Y-83500000D03*
D38*
X149450000Y-68145000D03*
X149450000Y-69415000D03*
X149450000Y-70685000D03*
X149450000Y-71955000D03*
X157650000Y-71955000D03*
X157650000Y-70685000D03*
X157650000Y-69415000D03*
D39*
X157650000Y-68145000D03*
D32*
X119050000Y-83500000D03*
X120950000Y-83500000D03*
D40*
X105700000Y-100562500D03*
X105700000Y-93737500D03*
D31*
X104400000Y-90600000D03*
X107200000Y-90600000D03*
D41*
X134200000Y-99000000D03*
X138200000Y-99000000D03*
D42*
X116600000Y-95500000D03*
X112300000Y-95500000D03*
D43*
X126325000Y-98275000D03*
X122975000Y-98275000D03*
X122975000Y-95225000D03*
X126325000Y-95225000D03*
D44*
X130950000Y-99030000D03*
X130950000Y-96750000D03*
X130950000Y-94470000D03*
D45*
X133650000Y-94900000D03*
X136350000Y-94900000D03*
D46*
X144625000Y-117425000D03*
X145975000Y-118775000D03*
X145975000Y-117425000D03*
X144625000Y-118775000D03*
D47*
X147262500Y-119350000D03*
X147262500Y-118850000D03*
X147262500Y-118350000D03*
X147262500Y-117850000D03*
X147262500Y-117350000D03*
X147262500Y-116850000D03*
D48*
X146550000Y-116137500D03*
X146050000Y-116137500D03*
X145550000Y-116137500D03*
X145050000Y-116137500D03*
X144550000Y-116137500D03*
X144050000Y-116137500D03*
D47*
X143337500Y-116850000D03*
X143337500Y-117350000D03*
X143337500Y-117850000D03*
X143337500Y-118350000D03*
X143337500Y-118850000D03*
X143337500Y-119350000D03*
D48*
X144050000Y-120062500D03*
X144550000Y-120062500D03*
X145050000Y-120062500D03*
X145550000Y-120062500D03*
X146050000Y-120062500D03*
X146550000Y-120062500D03*
D42*
X107850000Y-104900000D03*
X103550000Y-104900000D03*
D49*
X114450000Y-102500000D03*
X120050000Y-102500000D03*
D26*
X142512500Y-105600000D03*
X140687500Y-105600000D03*
D50*
X142957500Y-109450000D03*
X142957500Y-108500000D03*
X142957500Y-107550000D03*
X140682500Y-107550000D03*
X140682500Y-109450000D03*
M02*
